PathFileType	4	(X/Y/Z)
DataRate	CameraRate	NumFrames	NumMarkers	Units	OrigDataRate	OrigDataStartFrame	OrigNumFrames	
  120.0	  120.0	    6	     56	     mm	  120.0	      87	    688
Frame#	Time	LASI			RASI			LPSI			RPSI			RTH1			RTH2			RTH3			RLFC			RMFC			LTH1			LTH2			LTH3			LLFC			LMFC			RTB1			RTB2			RTB3			RLMAL			RMMAL			LTB1			LTB2			LTB3			LMMAL			LLMAL			RCAL			RTOE			RMT5			LCAL			LTOE			LMT5			LACR			RACR			CLAV			C7			LASH			LPSH			RASH			RPSH			RUA1			RUA2			RUA3			RLEL			RMEL			LUA1			LUA2			LUA3			LLEL			LMEL			RFAsuperior			RFAradius			RFAulna			LFAsuperior			LFAradius			LFAulna			RHJC			LHJC			
		X1	Y1	Z1	X2	Y2	Z2	X3	Y3	Z3	X4	Y4	Z4	X5	Y5	Z5	X6	Y6	Z6	X7	Y7	Z7	X8	Y8	Z8	X9	Y9	Z9	X10	Y10	Z10	X11	Y11	Z11	X12	Y12	Z12	X13	Y13	Z13	X14	Y14	Z14	X15	Y15	Z15	X16	Y16	Z16	X17	Y17	Z17	X18	Y18	Z18	X19	Y19	Z19	X20	Y20	Z20	X21	Y21	Z21	X22	Y22	Z22	X23	Y23	Z23	X24	Y24	Z24	X25	Y25	Z25	X26	Y26	Z26	X27	Y27	Z27	X28	Y28	Z28	X29	Y29	Z29	X30	Y30	Z30	X31	Y31	Z31	X32	Y32	Z32	X33	Y33	Z33	X34	Y34	Z34	X35	Y35	Z35	X36	Y36	Z36	X37	Y37	Z37	X38	Y38	Z38	X39	Y39	Z39	X40	Y40	Z40	X41	Y41	Z41	X42	Y42	Z42	X43	Y43	Z43	X44	Y44	Z44	X45	Y45	Z45	X46	Y46	Z46	X47	Y47	Z47	X48	Y48	Z48	X49	Y49	Z49	X50	Y50	Z50	X51	Y51	Z51	X52	Y52	Z52	X53	Y53	Z53	X54	Y54	Z54	X55	Y55	Z55	X56	Y56	Z56	

136	1.13333	623.42273	1017.42763	-671.39798	808.14089	1024.71458	-518.82318	566.01190	1044.22807	-499.66880	641.83405	1045.97997	-438.18494	818.60197	875.70244	-414.88759	851.72442	732.26305	-455.88288	804.97716	642.48880	-401.70875	830.17511	540.10373	-405.26592	729.00699	519.22247	-480.66633	507.31426	856.61444	-646.11647	545.31321	750.57571	-688.53698	493.64089	638.94650	-605.83150	489.91478	537.82945	-620.68887	592.69341	514.14690	-559.82244	821.25485	401.08596	-439.96984	832.45679	360.48969	-350.70269	817.40825	226.71766	-395.69719	808.76887	122.66541	-317.58302	754.38611	128.22247	-390.38259	524.77346	394.93542	-624.79581	447.44633	312.67175	-602.64689	501.40735	205.41657	-594.53990	523.56103	122.48618	-543.36877	434.46337	116.77336	-558.10267	726.32242	84.72240	-302.40401	858.92962	79.29961	-469.10345	925.75095	48.51891	-388.58565	452.24249	86.45336	-479.67694	556.45161	74.46927	-661.76555	454.68406	44.86046	-692.36236	485.94960	1515.56718	-569.92067	743.42917	1501.68975	-387.58725	696.21725	1462.64356	-551.86550	601.90922	1519.37274	-466.46128	545.93613	1492.31512	-619.65863	465.32041	1466.18021	-536.51711	778.98316	1476.96411	-454.90987	714.28061	1460.13718	-356.82788	806.46772	1469.17137	-345.58033	883.79943	1444.11122	-378.89027	880.60433	1396.28549	-308.70023	995.66505	1380.31893	-288.47981	980.04909	1327.40779	-320.72537	422.53901	1473.82127	-614.80545	407.70999	1398.91353	-632.01333	394.24447	1442.05039	-713.39681	315.62872	1380.46533	-780.73569	346.21320	1326.02366	-765.41365	1057.93964	1421.57078	-349.85432	1210.61498	1405.85687	-468.12417	1238.18000	1388.72007	-408.06841	351.28107	1412.44656	-849.71802	454.09076	1390.00342	-1028.28950	389.21515	1370.93956	-1045.20153	740.53255	968.22718	-493.82592	611.45106	956.60799	-599.99382	
137	1.14167	623.41700	1017.42538	-671.40276	808.11799	1024.70723	-518.83312	565.97409	1044.21467	-499.65726	641.80585	1045.96877	-438.17014	818.54952	875.71284	-414.89162	851.68366	732.26954	-455.86304	804.95309	642.50506	-401.67406	830.15832	540.11844	-405.25041	729.03309	519.24867	-480.69148	507.31212	856.59313	-646.14917	545.35427	750.54040	-688.54729	493.62577	638.93494	-605.85264	489.92117	537.82776	-620.69439	592.67172	514.15509	-559.79585	821.26507	401.10172	-440.03873	832.45013	360.49184	-350.69747	817.43160	226.75106	-395.79197	808.77154	122.66689	-317.58966	754.40757	128.21984	-390.39378	524.80516	394.92674	-624.86368	447.45654	312.66460	-602.65274	501.44788	205.43080	-594.60019	523.58494	122.47963	-543.38028	434.47385	116.76237	-558.11143	726.33323	84.71784	-302.40333	858.94395	79.29753	-469.09060	925.76260	48.51540	-388.59095	452.24154	86.45226	-479.67681	556.46950	74.47251	-661.78350	454.71931	44.86367	-692.40141	485.96197	1515.58947	-569.88747	743.42252	1501.66570	-387.58822	696.22582	1462.63064	-551.85032	601.89529	1519.35546	-466.47454	545.97363	1492.31606	-619.70213	465.31567	1466.18680	-536.51152	778.98664	1476.93387	-454.93386	714.25880	1460.12449	-356.80861	806.45016	1469.13953	-345.55111	883.78542	1444.07347	-378.94960	880.58548	1396.25124	-308.68266	995.63514	1380.27605	-288.46586	980.01397	1327.38277	-320.67349	422.53960	1473.82861	-614.81735	407.72211	1398.92575	-632.01762	394.24728	1442.05590	-713.39322	315.63496	1380.48864	-780.73461	346.19806	1326.05431	-765.41202	1057.92101	1421.51643	-349.83988	1210.60779	1405.76068	-468.27017	1238.16762	1388.64134	-408.00784	351.30577	1412.46061	-849.72336	454.10674	1389.99750	-1028.28875	389.23947	1370.95548	-1045.22123	740.51327	968.21752	-493.83007	611.43260	956.60202	-599.99954	
138	1.15000	623.39042	1017.43071	-671.38826	808.08362	1024.70107	-518.84560	565.93987	1044.20386	-499.65346	641.77540	1045.95913	-438.16259	818.49096	875.72051	-414.90421	851.64796	732.27246	-455.86501	804.91928	642.49541	-401.68678	830.14376	540.13001	-405.23826	729.00630	519.23111	-480.65888	507.30474	856.57533	-646.17962	545.37355	750.48708	-688.50955	493.61843	638.93240	-605.85920	489.91409	537.82810	-620.70229	592.65261	514.16061	-559.79435	821.26194	401.11838	-440.09360	832.44188	360.48352	-350.72304	817.42758	226.77513	-395.86307	808.77022	122.66690	-317.59851	754.41117	128.21944	-390.40299	524.81817	394.93172	-624.90903	447.45620	312.65460	-602.64688	501.46136	205.43326	-594.63008	523.59275	122.47771	-543.40444	434.48045	116.75680	-558.11890	726.32914	84.70702	-302.41396	858.94761	79.29761	-469.09084	925.76150	48.50597	-388.61050	452.23908	86.45113	-479.68093	556.47778	74.47529	-661.79754	454.73577	44.86950	-692.42446	485.97417	1515.60908	-569.86505	743.41792	1501.64707	-387.60428	696.22163	1462.62771	-551.84772	601.89193	1519.37066	-466.46320	545.99253	1492.32731	-619.71867	465.31480	1466.20242	-536.50405	778.97881	1476.91935	-454.94210	714.23228	1460.12021	-356.79939	806.42278	1469.11966	-345.51585	883.76599	1444.05494	-378.92529	880.56009	1396.22299	-308.67460	995.60520	1380.23231	-288.45861	979.98246	1327.36634	-320.61191	422.53636	1473.83824	-614.83764	407.72497	1398.94780	-632.02766	394.24658	1442.06766	-713.39770	315.63404	1380.51511	-780.74467	346.18086	1326.09254	-765.41717	1057.89683	1421.46364	-349.83938	1210.59838	1405.67619	-468.34068	1238.15772	1388.56991	-407.95982	351.31232	1412.48191	-849.73857	454.11862	1389.99374	-1028.29426	389.25816	1370.97002	-1045.24312	740.48307	968.21050	-493.83222	611.40228	956.60100	-600.00170	
139	1.15833	623.34564	1017.44520	-671.36103	808.03959	1024.69902	-518.84333	565.90630	1044.19817	-499.65437	641.74607	1045.95098	-438.15898	818.43200	875.71341	-414.92442	851.62346	732.27212	-455.88005	804.88343	642.46763	-401.73330	830.13234	540.13175	-405.23445	728.92013	519.14268	-480.55273	507.28964	856.56673	-646.19821	545.36448	750.44808	-688.42235	493.62173	638.93938	-605.85715	489.89453	537.82828	-620.71313	592.63518	514.16205	-559.81115	821.24710	401.12750	-440.11677	832.43596	360.47309	-350.75344	817.40262	226.78137	-395.89364	808.76517	122.66377	-317.60472	754.39797	128.22211	-390.40317	524.80546	394.93411	-624.90486	447.44800	312.64606	-602.63630	501.44610	205.42357	-594.63091	523.58264	122.47969	-543.42855	434.48028	116.75809	-558.12055	726.31583	84.69074	-302.43145	858.94161	79.29642	-469.10528	925.74991	48.49231	-388.63943	452.23667	86.44919	-479.68640	556.47293	74.47513	-661.79909	454.73191	44.87838	-692.43071	485.97893	1515.61760	-569.86498	743.41444	1501.63801	-387.62002	696.20661	1462.63378	-551.84472	601.89762	1519.40909	-466.42949	545.98658	1492.34575	-619.70110	465.31775	1466.22190	-536.50057	778.95985	1476.91835	-454.93016	714.20769	1460.11766	-356.80029	806.39117	1469.11010	-345.48401	883.74386	1444.05140	-378.82088	880.53220	1396.19748	-308.67330	995.57716	1380.18634	-288.45534	979.95124	1327.34482	-320.56161	422.52521	1473.84949	-614.85494	407.71438	1398.97568	-632.03860	394.24334	1442.08494	-713.41255	315.63253	1380.54211	-780.76739	346.16425	1326.13109	-765.43654	1057.86893	1421.41536	-349.84038	1210.58655	1405.60000	-468.30461	1238.14905	1388.50558	-407.91374	351.30504	1412.51157	-849.75999	454.12167	1389.99720	-1028.29646	389.26696	1370.98935	-1045.25893	740.44251	968.20745	-493.82697	611.36239	956.60708	-599.99755	
140	1.16667	623.28744	1017.46637	-671.33004	807.98975	1024.70108	-518.81833	565.87126	1044.19794	-499.65292	641.72063	1045.94341	-438.15485	818.38106	875.69143	-414.93879	851.61015	732.26978	-455.88894	804.85520	642.44040	-401.77942	830.12319	540.12208	-405.23825	728.80299	519.00819	-480.40382	507.26274	856.56985	-646.19621	545.33287	750.47311	-688.32178	493.62743	638.95151	-605.85574	489.86706	537.82901	-620.72567	592.61835	514.16208	-559.83088	821.22105	401.12425	-440.10335	832.43499	360.46947	-350.76011	817.36399	226.76921	-395.88019	808.75901	122.65868	-317.60563	754.37420	128.22749	-390.39078	524.76946	394.92452	-624.84619	447.43267	312.64444	-602.62745	501.40944	205.40776	-594.61198	523.55950	122.48347	-543.43996	434.47029	116.76457	-558.11551	726.29943	84.67466	-302.44750	858.92610	79.29350	-469.12117	925.72825	48.48505	-388.65973	452.23490	86.44654	-479.68991	556.45746	74.47215	-661.78625	454.70924	44.88653	-692.42006	485.97226	1515.62215	-569.88363	743.40859	1501.63808	-387.62088	696.18529	1462.64682	-551.82477	601.90037	1519.43453	-466.40534	545.95773	1492.36739	-619.65601	465.32222	1466.24122	-536.50473	778.93325	1476.92279	-454.90255	714.19115	1460.11015	-356.80565	806.36434	1469.10598	-345.46402	883.72272	1444.04718	-378.72600	880.50584	1396.17176	-308.67273	995.55193	1380.13791	-288.45414	979.91922	1327.31149	-320.53080	422.50498	1473.86374	-614.85586	407.69184	1399.00572	-632.04632	394.23658	1442.11043	-713.43156	315.63108	1380.57113	-780.79705	346.14861	1326.16756	-765.46444	1057.84049	1421.37240	-349.83131	1210.57354	1405.52816	-468.19236	1238.14005	1388.44580	-407.86579	351.29070	1412.54857	-849.77863	454.11044	1390.01176	-1028.28556	389.26146	1371.01978	-1045.26161	740.39513	968.20733	-493.81305	611.31548	956.61918	-599.98514	
141	1.17500	623.22103	1017.48971	-671.29912	807.93730	1024.70543	-518.77514	565.83520	1044.20093	-499.64376	641.69891	1045.93515	-438.14882	818.34365	875.66491	-414.93209	851.60146	732.26646	-455.87919	804.83753	642.42686	-401.79764	830.11371	540.10617	-405.24473	728.70674	518.90300	-480.28805	507.22030	856.58339	-646.17267	545.29238	750.58490	-688.26842	493.62382	638.96204	-605.86041	489.83519	537.83286	-620.73612	592.60199	514.16451	-559.84066	821.18504	401.11207	-440.06579	832.43580	360.47447	-350.73678	817.31761	226.74529	-395.82984	808.75492	122.65578	-317.60155	754.34676	128.23387	-390.37322	524.71913	394.90618	-624.75738	447.40759	312.65139	-602.62279	501.36342	205.39428	-594.58433	523.53125	122.48670	-543.43520	434.45031	116.77167	-558.10747	726.28234	84.66623	-302.45461	858.90082	79.29086	-469.12201	925.69663	48.49169	-388.65739	452.23332	86.44418	-479.69040	556.43744	74.46901	-661.76545	454.66959	44.88756	-692.39062	485.95578	1515.64111	-569.90607	743.39701	1501.64211	-387.60494	696.16087	1462.66421	-551.78365	601.89068	1519.42176	-466.41677	545.91429	1492.39110	-619.59735	465.32424	1466.26077	-536.51433	778.90389	1476.92523	-454.86738	714.18444	1460.09748	-356.80782	806.34763	1469.10173	-345.45670	883.70468	1444.02947	-378.72262	880.48190	1396.14516	-308.66979	995.52891	1380.08891	-288.45520	979.88796	1327.27066	-320.51293	422.47646	1473.88298	-614.83669	407.66364	1399.03690	-632.04853	394.22439	1442.14820	-713.44421	315.62212	1380.60671	-780.82332	346.13556	1326.20441	-765.48701	1057.81512	1421.33472	-349.80872	1210.56114	1405.45853	-468.06713	1238.12938	1388.38636	-407.82382	351.27234	1412.58935	-849.78653	454.08167	1390.03421	-1028.26106	389.23893	1371.05931	-1045.25205	740.34492	968.20820	-493.79246	611.26417	956.63385	-599.96478	
